<svg width="48" height="48" viewBox="0 0 48 48" fill="none" xmlns="http://www.w3.org/2000/svg">
<path d="M27.0537 0.197625C13.9097 -1.48837 1.88366 7.79962 0.19766 20.9456C-1.48834 34.0896 7.79766 46.1136 20.9437 47.8016C34.0897 49.4876 46.1197 40.1996 47.8017 27.0536C49.4897 13.9096 40.2037 1.88563 27.0537 0.197625ZM31.9957 15.1676C31.5317 15.1736 31.1137 15.3636 30.8097 15.6676L21.9037 24.5736L20.0037 22.6736C28.7817 13.9216 30.3657 13.8376 31.9957 15.1676ZM22.2697 24.8896L31.1497 16.0096C31.3757 15.7736 31.6937 15.6256 32.0477 15.6256C32.7317 15.6256 33.2877 16.1816 33.2877 16.8656C33.2877 17.2456 33.1157 17.5876 32.8457 17.8136L32.8437 17.8156L23.4457 26.0656L22.2697 24.8896ZM22.9297 26.2776L20.7297 26.7536C20.7217 26.7556 20.7117 26.7556 20.7037 26.7556C20.6577 26.7556 20.6157 26.7296 20.5957 26.6896C20.5857 26.6716 20.5797 26.6516 20.5797 26.6296C20.5797 26.5956 20.5937 26.5656 20.6157 26.5436L21.9057 25.2536L22.9297 26.2776ZM17.3237 25.3596L19.6677 23.0156L21.4257 24.7716L17.4677 25.6236C17.4557 25.6256 17.4437 25.6276 17.4297 25.6276C17.3717 25.6276 17.3217 25.5936 17.2977 25.5456C17.2837 25.5236 17.2757 25.4976 17.2757 25.4676C17.2757 25.4256 17.2937 25.3856 17.3237 25.3596ZM10.0317 37.4736C9.95366 37.4676 9.89366 37.4036 9.89366 37.3236C9.89366 37.3176 9.89366 37.3136 9.89366 37.3076C9.89766 37.2716 9.91366 37.2396 9.93766 37.2156H9.94166L11.8337 35.3236L14.2777 37.7676L10.0317 37.4736ZM14.8837 34.9636C14.7337 35.0416 14.6357 35.1936 14.6357 35.3696C14.6357 35.4076 14.6397 35.4436 14.6497 35.4796V35.4756L15.0557 37.2056C15.0597 37.2236 15.0637 37.2436 15.0637 37.2656C15.0637 37.4036 14.9517 37.5156 14.8137 37.5156C14.7437 37.5156 14.6797 37.4876 14.6337 37.4396H14.6277L12.1717 34.9816L19.6957 27.4656L23.3357 26.6796L25.0837 28.4276C22.5737 30.6316 19.1417 32.8296 14.8837 34.9636ZM25.4397 28.1076H25.4357L23.7577 26.4296L33.1557 18.1796C33.2417 18.1016 33.3197 18.0196 33.3897 17.9296L33.3937 17.9256C33.0997 20.6156 29.3357 24.4156 25.4397 28.1076ZM35.3237 16.2516C34.3197 16.2516 33.4117 15.8456 32.7537 15.1876L32.7497 15.1836C32.0937 14.5256 31.6877 13.6156 31.6877 12.6136C31.6877 10.6016 33.3197 8.96963 35.3317 8.96963C36.2237 8.96963 37.0397 9.28962 37.6717 9.82162L37.6657 9.81763L34.4457 13.0436C34.4017 13.0876 34.3757 13.1456 34.3757 13.2116C34.3757 13.2776 34.4017 13.3376 34.4457 13.3796L36.9397 15.8736C36.4677 16.1116 35.9117 16.2516 35.3237 16.2516ZM37.9117 15.1876C37.7497 15.3476 37.5737 15.4896 37.3817 15.6156L37.3697 15.6236L34.9537 13.2096L38.0197 10.1436C39.3417 11.5836 39.2937 13.8076 37.9117 15.1876Z" fill="#6E6E73"/>
</svg>
