<svg viewBox="0 0 512 512" xmlns="http://www.w3.org/2000/svg"><g fill="#6E6E73"><path d="M304.06 252.86c-3.57 40.41-30.21 65.4-64.62 65.4 -29.9 0-50.68-26.65-47.52-62.6 3.25-36.94 30.48-65.41 61.61-65.41 30.66 0 53.59 27.61 50.51 62.59Zm31.87 2.81c4.67-53.02-32.2-97.41-82.39-97.41 -48.71 0-88.86 41.98-93.49 94.59 -4.72 53.59 29.45 97.4 79.38 97.4 51.16 0 91.47-37.83 96.48-94.6Z"/><path d="M313.57 401.01c-24.94 10.47-40.94 13.25-73.09 13.25 -87.78 0-152.25-70.72-144.56-158.61 7.78-88.93 86.65-161.4 175.57-161.4 97.06 0 153.18 60.68 145.28 150.32 -2.55 28.89-12.11 49.46-26.14 61.96 -10.47 9.33-22.82 13.24-31.23 11.75 -16.73-2.97-27.06-18.36-24.6-46.35l8.47-96.25c.77-8.81-5.74-16.57-14.54-17.35 -8.81-.78-16.57 5.73-17.35 14.53l-8.48 96.25c-3.85 43.71 16.91 74.63 50.88 80.65 18.44 3.26 40.57-3.74 58.11-19.38 20.37-18.18 33.47-46.36 36.7-83.05 9.55-108.42-61.38-185.14-177.16-185.14 -105.53 0-198.22 85.16-207.45 190.6 -9.33 106.55 69.84 193.39 176.42 193.39 36.15 0 56.31-3.5 85.47-15.75 8.14-3.43 11.97-12.81 8.55-20.95 -3.43-8.15-12.81-11.98-20.95-8.56Z"/></g></svg>