<svg viewBox="0 0 24 24" xmlns="http://www.w3.org/2000/svg"><path fill="#6E6E73" d="M12 2c5.52 0 10 4.47 10 10 0 5.52-4.48 10-10 10C6.47 22 2 17.52 2 12 2 6.47 6.47 2 12 2Zm-1.987 13.332c.14.53.13 1.03-.03 1.49l-.06.15v0c-.13.3-.31.58-.53.82 -.59.63-1.4.87-1.742.67 -.375-.22-.19-1.12.48-1.83 .72-.77 1.766-1.26 1.766-1.26v-.01l.09-.05Zm8.25-9.051c-.46-1.78-3.4-2.37-6.19-1.38 -1.66.58-3.46 1.51-4.743 2.72 -1.54 1.43-1.78 2.68-1.68 3.2C6 12.66 8.53 13.86 9.57 14.76v0c-.31.14-2.548 1.27-3.08 2.43 -.57 1.22.08 2.1.51 2.21 1.31.36 2.66-.3 3.388-1.38 .69-1.06.63-2.4.33-3.07 .41-.12.89-.17 1.52-.09 1.75.19 2.1 1.3 2.02 1.75 -.08.44-.44.71-.57.78 -.13.07-.17.1-.16.15 .01.07.07.07.17.06 .13-.03.91-.375.95-1.23 .03-1.08-.99-2.28-2.82-2.25 -.75.01-1.23.07-1.57.21h0c-.03-.04-.06-.07-.09-.09 -1.125-1.22-3.213-2.07-3.125-3.68 .02-.59.23-2.14 4-4.012 3.08-1.54 5.55-1.112 5.977-.18 .61 1.33-1.314 3.82-4.526 4.18 -1.23.13-1.862-.34-2.026-.52 -.18-.19-.2-.2-.27-.17 -.11.05-.04.21 0 .31 .1.24.48.68 1.16.91 .58.18 2.02.29 3.75-.375 1.93-.75 3.44-2.84 3.01-4.588l.06.05Z"/></svg>